# xmcd CD database file
#
# Track frame offsets:
# 150
# 4393
# 8641
# 18629
# 24253
# 29949
# 34819
# 39568
# 41599
# 46506
# 51468
# 56495
# 59981
# 65032
# 70816
# 76186
# 83743
# 92686
# 98403
# 103385
# 111519
# 119813
# 129048
# 137149
# 143796
# 148220
# 157343
# 166482
# 176489
# 188226
# 192855
# 201555
# 207256
# 210463
# 223049
# 235813
# 249930
# 254782
# 271928
# 280411
# 286009
# 290230
# 300284
#
# Disc length: 4172 seconds
# Revision: 2
# Processed by: cddbd v1.5.2PL0 Copyright (c) Steve Scherf et al.
# Submitted via: MusicBin 0.4
#
DISCID=97104a2b
DTITLE=Ed Friedland - Bass Method - Blues Bass
DYEAR=2005
DGENRE=Instructional
TTITLE0=12-Bar Blues Form
TTITLE1=12-Bar Blues Form - quick IV
TTITLE2=Turnarounds
TTITLE3=Laying Down the Root
TTITLE4=Laying Down the Root - shuffle
TTITLE5=Dyna Flow
TTITLE6=Uptown Up
TTITLE7=Two Easy Fills
TTITLE8=Messin' with the Kid (Higher register)
TTITLE9=Messin' with the Kid (Lower register)
TTITLE10=Strange Brew Box Groove
TTITLE11=Strange Brew Box Groove Variations
TTITLE12=Strange Brew Box Groove with variations
TTITLE13=Boogie Line 1
TTITLE14=Boogie Line 2
TTITLE15=Boogie Line 3
TTITLE16=Big Boss Man
TTITLE17=Kidney Stew
TTITLE18=Cool Walking Bass Line
TTITLE19=Slow Blues 1
TTITLE20=Slow Blues 2
TTITLE21=Stormy Monday
TTITLE22=Blues After Hours
TTITLE23=Mardis Gras in New Orleans
TTITLE24=Crosscut Saw
TTITLE25=Intros - Shuffle Boogie
TTITLE26=Intros - from the four
TTITLE27=Endings
TTITLE28=Stops, Hits and Kicks
TTITLE29=My Babe
TTITLE30=Key to the Highway
TTITLE31=I Hear You Knockin'
TTITLE32=New Orleans second line rhumba feel
TTITLE33=Hideaway
TTITLE34=I'm Tore Down
TTITLE35=Born Under a Bad Sign
TTITLE36=Killing Floor
TTITLE37=Pride and Joy
TTITLE38=Hoochie Coochie Man
TTITLE39=The Thrill Is Gone
TTITLE40=All your Love (I Miss Loving)
TTITLE41=Farther up the Road
TTITLE42=Sweet Home Chicago
EXTD=YEAR: 2005
EXTT0=
EXTT1=
EXTT2=
EXTT3=
EXTT4=
EXTT5=
EXTT6=
EXTT7=
EXTT8=
EXTT9=
EXTT10=
EXTT11=
EXTT12=
EXTT13=
EXTT14=
EXTT15=
EXTT16=
EXTT17=
EXTT18=
EXTT19=
EXTT20=
EXTT21=
EXTT22=
EXTT23=
EXTT24=
EXTT25=
EXTT26=
EXTT27=
EXTT28=
EXTT29=
EXTT30=
EXTT31=
EXTT32=
EXTT33=
EXTT34=
EXTT35=
EXTT36=
EXTT37=
EXTT38=
EXTT39=
EXTT40=
EXTT41=
EXTT42=
PLAYORDER=
